<svg width="14" height="22" viewBox="0 0 14 22" fill="none" xmlns="http://www.w3.org/2000/svg">
<path fill-rule="evenodd" clip-rule="evenodd" d="M0.292893 21.7071C0.683418 22.0976 1.31658 22.0976 1.70711 21.7071L7 16.4142L12.2929 21.7071C12.6834 22.0976 13.3166 22.0976 13.7071 21.7071C14.0976 21.3166 14.0976 20.6834 13.7071 20.2929L7.70711 14.2929C7.31658 13.9024 6.68342 13.9024 6.29289 14.2929L0.292893 20.2929C-0.0976312 20.6834 -0.0976311 21.3166 0.292893 21.7071Z" fill="#545454"/>
<path fill-rule="evenodd" clip-rule="evenodd" d="M0.292893 14.7071C0.683418 15.0976 1.31658 15.0976 1.70711 14.7071L7 9.41421L12.2929 14.7071C12.6834 15.0976 13.3166 15.0976 13.7071 14.7071C14.0976 14.3166 14.0976 13.6834 13.7071 13.2929L7.70711 7.29289C7.31658 6.90237 6.68342 6.90237 6.29289 7.29289L0.292893 13.2929C-0.0976312 13.6834 -0.0976311 14.3166 0.292893 14.7071Z" fill="#A9A9A9"/>
<path fill-rule="evenodd" clip-rule="evenodd" d="M0.292893 7.70711C0.683418 8.09763 1.31658 8.09763 1.70711 7.70711L7 2.41421L12.2929 7.70711C12.6834 8.09763 13.3166 8.09763 13.7071 7.70711C14.0976 7.31658 14.0976 6.68342 13.7071 6.29289L7.70711 0.292894C7.31658 -0.0976299 6.68342 -0.0976298 6.29289 0.292894L0.292893 6.29289C-0.0976312 6.68342 -0.0976311 7.31658 0.292893 7.70711Z" fill="white"/>
</svg>
